<svg width="428" height="227" viewBox="0 0 428 227" fill="none" xmlns="http://www.w3.org/2000/svg">
<g clip-path="url(#clip0_628_5733)">
<path d="M353.341 159.292C352.961 159.273 352.676 159.007 352.638 158.646L345.417 72.0516L337.778 136.128C337.74 136.47 337.455 136.736 337.094 136.736C336.752 136.736 336.448 136.489 336.391 136.147L330.329 99.4343L328.049 116.955C328.011 117.259 327.782 117.506 327.478 117.544C327.174 117.601 326.87 117.449 326.737 117.183L321.36 107.244H251.829C251.449 107.244 251.126 106.94 251.126 106.541C251.126 106.161 251.43 105.838 251.829 105.838H321.797C322.063 105.838 322.291 105.971 322.405 106.199L326.946 114.598L329.55 94.5316C329.588 94.1896 329.892 93.9236 330.234 93.9236C330.595 93.8856 330.88 94.1706 330.937 94.5126L336.98 131.055L344.847 65.0017C344.885 64.6406 345.189 64.3556 345.55 64.3936C345.911 64.3936 346.196 64.6786 346.234 65.0397L353.493 152.128L361.493 92.7644C361.531 92.4414 361.797 92.1943 362.12 92.1563C362.443 92.1183 362.747 92.3273 362.842 92.6504L366.966 105.876H500.079C500.459 105.876 500.782 106.18 500.782 106.579C500.782 106.959 500.478 107.282 500.079 107.282H366.453C366.149 107.282 365.883 107.092 365.788 106.788L362.462 96.0898L354.025 158.703C353.987 159.045 353.683 159.292 353.341 159.292Z" fill="#FF2121"/>
<path d="M62.6592 159.292C62.6402 159.292 62.6402 159.292 62.6592 159.292C62.2791 159.273 61.9941 159.007 61.9561 158.646L54.7351 72.0515L47.0961 136.128C47.0581 136.47 46.773 136.736 46.412 136.736C45.9939 136.736 45.7659 136.489 45.7089 136.147L39.6471 99.4342L37.3668 116.955C37.3288 117.259 37.1007 117.506 36.7967 117.544C36.4927 117.601 36.1886 117.449 36.0556 117.183L30.6779 107.263H-72.2969C-72.677 107.263 -73 106.959 -73 106.56C-73 106.18 -72.696 105.857 -72.2969 105.857H31.0959C31.362 105.857 31.59 105.99 31.704 106.218L36.2456 114.617L38.849 94.5506C38.887 94.2085 39.191 93.9425 39.5331 93.9425C39.8751 93.9045 40.1792 94.1895 40.2362 94.5316L46.279 131.073L54.146 65.0206C54.184 64.6595 54.4501 64.3745 54.8491 64.4125C55.2102 64.4125 55.4952 64.6976 55.5332 65.0586L62.7922 152.147L70.7923 92.7833C70.8302 92.4603 71.0963 92.2132 71.4193 92.1752C71.7424 92.1372 72.0464 92.3463 72.1414 92.6693L76.265 105.895H209.378C209.758 105.895 210.081 106.199 210.081 106.598C210.081 106.978 209.777 107.301 209.378 107.301H75.7899C75.4859 107.301 75.2198 107.111 75.1248 106.807L71.7994 96.1088L63.3432 158.684C63.3052 159.045 63.0012 159.292 62.6592 159.292Z" fill="#FF2121"/>
<path d="M218.27 0.98211C218.194 0.488044 217.814 0.0889897 217.301 0.0129795C216.674 -0.0820332 216.085 0.355026 215.99 0.98211C212.988 20.7638 196.399 43.3388 181.501 67.111C183.287 66.6549 185.149 66.3509 187.125 66.2558C208.731 65.2297 221.406 81.1538 222.318 96.6219C223.268 112.565 212.494 126.095 204.323 134.893C193.928 146.067 177.871 158.038 167.344 164.1L166.85 164.385C185.225 191.141 221.577 198.932 249.397 181.601C326.281 133.677 224.94 45.087 218.27 0.98211Z" fill="url(#paint0_linear_628_5733)"/>
<path d="M232.389 43.9849C258.176 90.9021 283.886 144.869 233.72 179.606C231.192 181.354 228.589 182.855 225.948 184.148C231.04 182.627 236 180.423 240.731 177.478C295.497 143.349 259.867 88.6028 232.389 43.9849Z" fill="url(#paint1_linear_628_5733)"/>
<path d="M216.807 96.9639C215.99 83.2061 204.475 70.9874 187.372 71.7855C173.709 72.4316 164.683 85.5624 164.683 85.5624C164.683 85.5624 155.695 72.3936 142.032 71.7285C124.93 70.8924 113.376 83.073 112.54 96.8309C111.704 110.437 121.262 122.712 128.977 131.054C139.467 142.399 155.315 153.953 164.588 159.33C173.862 153.991 189.748 142.475 200.275 131.149C208.009 122.807 217.605 110.551 216.807 96.9639Z" fill="url(#paint2_linear_628_5733)"/>
<path opacity="0.4" d="M208.504 227.131C281.684 227.131 341.009 220.266 341.009 211.796C341.009 203.327 281.684 196.461 208.504 196.461C135.323 196.461 75.999 203.327 75.999 211.796C75.999 220.266 135.323 227.131 208.504 227.131Z" fill="url(#paint3_radial_628_5733)"/>
</g>
<defs>
<linearGradient id="paint0_linear_628_5733" x1="264.97" y1="49.91" x2="181.418" y2="170.596" gradientUnits="userSpaceOnUse">
<stop stop-color="#FF5E58"/>
<stop offset="0.5448" stop-color="#EF150D"/>
<stop offset="0.6788" stop-color="#E11209"/>
<stop offset="0.8856" stop-color="#C30D00"/>
<stop offset="1" stop-color="#EF150D"/>
</linearGradient>
<linearGradient id="paint1_linear_628_5733" x1="260.066" y1="82.1978" x2="189.272" y2="184.071" gradientUnits="userSpaceOnUse">
<stop stop-color="#FF5E58"/>
<stop offset="0.5448" stop-color="#EF150D"/>
<stop offset="0.6788" stop-color="#E11209"/>
<stop offset="0.8856" stop-color="#C30D00"/>
<stop offset="1" stop-color="#EF150D"/>
</linearGradient>
<linearGradient id="paint2_linear_628_5733" x1="164.668" y1="84.7012" x2="164.668" y2="159.864" gradientUnits="userSpaceOnUse">
<stop stop-color="#FF5E58"/>
<stop offset="0.5448" stop-color="#EF150D"/>
<stop offset="0.6788" stop-color="#E11209"/>
<stop offset="0.8856" stop-color="#C30D00"/>
<stop offset="1" stop-color="#EF150D"/>
</linearGradient>
<radialGradient id="paint3_radial_628_5733" cx="0" cy="0" r="1" gradientUnits="userSpaceOnUse" gradientTransform="translate(208.495 211.798) scale(132.509 15.3437)">
<stop stop-color="#FC4F49"/>
<stop offset="0.1167" stop-color="#FD7672"/>
<stop offset="0.26" stop-color="#FDA09D"/>
<stop offset="0.4058" stop-color="#FEC2C0"/>
<stop offset="0.5521" stop-color="#FEDDDC"/>
<stop offset="0.6993" stop-color="#FFF0EF"/>
<stop offset="0.8478" stop-color="#FFFBFB"/>
<stop offset="1" stop-color="white"/>
</radialGradient>
<clipPath id="clip0_628_5733">
<rect width="428" height="227" fill="white"/>
</clipPath>
</defs>
</svg>
